<svg width="414" height="414" viewBox="0 0 414 414" fill="none" xmlns="http://www.w3.org/2000/svg">
<path d="M382 207C382 110.35 303.65 32 207 32C110.35 32 32 110.35 32 207C32 303.65 110.35 382 207 382C303.65 382 382 303.65 382 207ZM414 207C414 321.323 321.323 414 207 414C92.6771 414 0 321.323 0 207C0 92.6771 92.6771 0 207 0C321.323 0 414 92.6771 414 207Z" fill="black"/>
<path d="M87.1622 362.099C87.5732 362.416 87.9915 362.628 88.4169 362.736C88.8423 362.843 89.2578 362.854 89.6634 362.77C90.0736 362.689 90.4642 362.515 90.8351 362.249C91.2106 361.986 91.5516 361.642 91.8582 361.216L96.308 355.029L97.645 356.06L93.1951 362.248C92.7727 362.835 92.2887 363.308 91.7429 363.668C91.2018 364.031 90.6275 364.265 90.0201 364.371C89.4208 364.475 88.8014 364.443 88.162 364.273C87.5227 364.104 86.8982 363.784 86.2886 363.313C85.679 362.843 85.2044 362.315 84.8648 361.728C84.5251 361.142 84.3155 360.535 84.2361 359.907C84.16 359.274 84.2101 358.635 84.3864 357.99C84.5674 357.349 84.869 356.735 85.2913 356.148L89.7412 349.961L91.0781 350.992L86.6334 357.173C86.3268 357.599 86.1036 358.034 85.9636 358.478C85.8282 358.926 85.7794 359.363 85.8171 359.79C85.8595 360.221 85.9895 360.634 86.2072 361.03C86.4329 361.425 86.7512 361.781 87.1622 362.099Z" fill="white"/>
<path d="M109.332 363.29L102.803 373.995L102.093 373.531C101.98 373.458 101.897 373.375 101.843 373.284C101.794 373.197 101.762 373.082 101.747 372.939L100.595 360.903C100.529 361.034 100.462 361.16 100.394 361.283C100.326 361.406 100.26 361.519 100.196 361.624L95.5446 369.251L94.2995 368.437L100.828 357.732L101.561 358.211C101.624 358.253 101.675 358.293 101.713 358.331C101.753 358.365 101.785 358.403 101.807 358.445C101.832 358.483 101.851 358.53 101.864 358.587C101.88 358.639 101.892 358.703 101.901 358.778L103.057 370.807C103.126 370.672 103.192 370.541 103.255 370.415C103.327 370.287 103.395 370.168 103.462 370.059L108.087 362.476L109.332 363.29Z" fill="white"/>
<path d="M109.24 377.809L107.769 376.961L113.715 365.922L115.186 366.77L109.24 377.809Z" fill="white"/>
<path d="M127.965 373.559L118.028 382.569L116.671 381.879L117.497 368.239L118.706 368.853C118.841 368.922 118.934 369.012 118.984 369.122C119.035 369.233 119.056 369.352 119.048 369.478L118.402 379.07C118.385 379.283 118.357 379.511 118.32 379.754C118.287 379.999 118.242 380.251 118.184 380.509C118.346 380.304 118.505 380.11 118.663 379.928C118.82 379.747 118.975 379.583 119.128 379.439L126.068 373.046C126.142 372.972 126.241 372.921 126.364 372.892C126.495 372.861 126.626 372.878 126.756 372.944L127.965 373.559Z" fill="white"/>
<path d="M133.937 388.351L133.415 389.631L126.31 386.595L130.969 374.954L138.074 377.99L137.56 379.274L132.017 376.905L130.469 380.772L134.959 382.69L134.465 383.925L129.975 382.006L128.385 385.979L133.937 388.351Z" fill="white"/>
<path d="M142.868 386.3C143.33 386.462 143.756 386.549 144.145 386.562C144.541 386.571 144.891 386.514 145.195 386.392C145.506 386.266 145.77 386.081 145.986 385.835C146.202 385.589 146.367 385.292 146.482 384.943C146.715 384.234 146.66 383.618 146.316 383.096C145.972 382.573 145.338 382.15 144.413 381.826L142.662 381.213L141.183 385.709L142.868 386.3ZM146.314 394.358L144.894 393.86C144.602 393.758 144.425 393.569 144.362 393.294L142.69 387.961C142.64 387.796 142.569 387.666 142.477 387.572C142.392 387.474 142.237 387.386 142.012 387.307L140.798 386.881L139.163 391.852L137.569 391.293L141.487 379.382L144.831 380.554C145.58 380.817 146.201 381.121 146.695 381.467C147.191 381.808 147.568 382.184 147.825 382.595C148.088 383.009 148.238 383.451 148.273 383.921C148.311 384.385 148.247 384.869 148.081 385.373C147.943 385.795 147.747 386.165 147.495 386.484C147.242 386.804 146.941 387.066 146.591 387.271C146.249 387.472 145.862 387.612 145.431 387.689C145.006 387.769 144.548 387.781 144.056 387.727C144.222 387.914 144.342 388.145 144.418 388.419L146.314 394.358Z" fill="white"/>
<path d="M159.217 387.122C159.144 387.192 159.071 387.241 158.997 387.269C158.931 387.293 158.855 387.293 158.771 387.269C158.676 387.242 158.576 387.163 158.472 387.031C158.368 386.899 158.233 386.749 158.066 386.581C157.906 386.409 157.702 386.236 157.452 386.063C157.207 385.892 156.891 385.752 156.504 385.643C156.139 385.54 155.803 385.501 155.495 385.523C155.194 385.542 154.926 385.609 154.691 385.725C154.461 385.842 154.267 386.003 154.111 386.207C153.956 386.406 153.843 386.638 153.773 386.903C153.684 387.241 153.691 387.546 153.794 387.818C153.905 388.085 154.074 388.335 154.302 388.569C154.535 388.804 154.808 389.029 155.119 389.243C155.437 389.454 155.76 389.671 156.087 389.896C156.419 390.123 156.735 390.363 157.036 390.617C157.344 390.867 157.602 391.148 157.809 391.461C158.022 391.775 158.164 392.127 158.236 392.517C158.314 392.908 158.286 393.355 158.154 393.857C158.014 394.387 157.792 394.861 157.489 395.278C157.187 395.69 156.816 396.02 156.377 396.266C155.944 396.514 155.448 396.666 154.891 396.721C154.339 396.778 153.742 396.717 153.102 396.538C152.316 396.317 151.64 395.976 151.074 395.514C150.51 395.047 150.064 394.507 149.737 393.894L150.415 393.248C150.476 393.199 150.543 393.163 150.615 393.141C150.694 393.115 150.773 393.113 150.852 393.135C150.925 393.155 150.998 393.209 151.071 393.296C151.152 393.38 151.239 393.483 151.334 393.606C151.428 393.729 151.536 393.866 151.66 394.016C151.783 394.165 151.928 394.312 152.095 394.456C152.268 394.601 152.47 394.74 152.701 394.871C152.933 394.997 153.203 395.103 153.512 395.19C153.9 395.298 154.259 395.342 154.591 395.32C154.923 395.298 155.218 395.22 155.476 395.086C155.742 394.949 155.966 394.76 156.15 394.521C156.334 394.282 156.47 393.996 156.558 393.663C156.655 393.297 156.649 392.974 156.542 392.696C156.441 392.413 156.277 392.155 156.049 391.921C155.822 391.688 155.548 391.469 155.228 391.264C154.909 391.053 154.585 390.841 154.256 390.628C153.927 390.408 153.609 390.174 153.301 389.924C152.993 389.674 152.737 389.39 152.531 389.072C152.325 388.753 152.186 388.39 152.113 387.982C152.047 387.57 152.085 387.096 152.226 386.56C152.339 386.131 152.53 385.739 152.799 385.385C153.073 385.032 153.408 384.744 153.805 384.522C154.207 384.302 154.663 384.163 155.172 384.106C155.688 384.051 156.246 384.107 156.847 384.276C157.521 384.465 158.105 384.744 158.598 385.113C159.098 385.483 159.505 385.93 159.819 386.455L159.217 387.122Z" fill="white"/>
<path d="M162.804 398.903L161.151 398.516L163.857 386.273L165.51 386.66L162.804 398.903Z" fill="white"/>
<path d="M177.786 390.562L173.791 389.837L171.905 400.788L170.243 400.486L172.129 389.535L168.126 388.808L168.368 387.402L178.028 389.157L177.786 390.562Z" fill="white"/>
<path d="M184.964 397.693L184.409 402.658L182.723 402.461L183.278 397.496L179.554 389.468L181.031 389.64C181.182 389.658 181.296 389.709 181.375 389.795C181.454 389.875 181.519 389.976 181.57 390.099L183.879 395.276C183.96 395.491 184.035 395.693 184.101 395.883C184.169 396.067 184.224 396.253 184.268 396.44C184.352 396.267 184.444 396.099 184.545 395.935C184.646 395.764 184.757 395.583 184.878 395.392L188.262 390.88C188.325 390.787 188.408 390.706 188.509 390.636C188.611 390.565 188.734 390.539 188.879 390.556L190.365 390.729L184.964 397.693Z" fill="white"/>
<path d="M208.793 397.793C208.774 398.732 208.608 399.592 208.295 400.374C207.982 401.15 207.549 401.816 206.995 402.372C206.441 402.929 205.779 403.357 205.009 403.659C204.244 403.954 203.401 404.094 202.48 404.077C201.558 404.061 200.722 403.891 199.97 403.569C199.218 403.24 198.576 402.788 198.045 402.213C197.514 401.638 197.108 400.956 196.826 400.17C196.544 399.377 196.413 398.511 196.431 397.572C196.45 396.633 196.616 395.776 196.929 394.999C197.242 394.217 197.676 393.548 198.23 392.992C198.783 392.43 199.443 391.999 200.207 391.697C200.972 391.396 201.815 391.253 202.736 391.27C203.658 391.286 204.494 391.459 205.246 391.787C206.004 392.116 206.648 392.571 207.179 393.152C207.71 393.727 208.117 394.411 208.399 395.204C208.68 395.991 208.812 396.854 208.793 397.793ZM207.052 397.762C207.068 396.992 206.976 396.299 206.779 395.683C206.581 395.066 206.294 394.545 205.917 394.118C205.541 393.686 205.081 393.351 204.537 393.113C203.993 392.876 203.383 392.752 202.707 392.74C202.036 392.728 201.424 392.83 200.871 393.048C200.319 393.266 199.843 393.584 199.443 394.003C199.05 394.416 198.742 394.927 198.52 395.535C198.298 396.144 198.179 396.833 198.164 397.603C198.148 398.373 198.239 399.066 198.437 399.682C198.635 400.292 198.922 400.814 199.298 401.246C199.681 401.673 200.144 402.005 200.688 402.243C201.231 402.474 201.839 402.596 202.509 402.608C203.186 402.62 203.8 402.52 204.353 402.308C204.906 402.09 205.379 401.775 205.772 401.362C206.166 400.943 206.474 400.432 206.696 399.829C206.918 399.221 207.037 398.531 207.052 397.762Z" fill="white"/>
<path d="M214.861 392.726L215.066 397.105L220.212 396.827L220.277 398.208L215.13 398.486L215.383 403.87L213.687 403.961L213.101 391.436L220.816 391.02L220.881 392.401L214.861 392.726Z" fill="white"/>
<path d="M235.829 397.264L233.222 392.486C233.145 392.344 233.062 392.179 232.972 391.991C232.883 391.798 232.794 391.593 232.707 391.375C232.647 391.861 232.573 392.269 232.487 392.6L231.196 397.93L235.829 397.264ZM239.93 401.378L238.63 401.564C238.48 401.586 238.354 401.566 238.252 401.504C238.15 401.442 238.068 401.357 238.007 401.247L236.455 398.412L230.886 399.212L230.116 402.381C230.095 402.49 230.041 402.592 229.953 402.687C229.866 402.782 229.75 402.84 229.605 402.861L228.306 403.047L231.65 389.901L233.348 389.657L239.93 401.378Z" fill="white"/>
<path d="M247.781 398.48C248.288 398.369 248.724 398.184 249.088 397.925C249.453 397.667 249.741 397.353 249.953 396.984C250.171 396.615 250.308 396.2 250.365 395.739C250.427 395.278 250.407 394.79 250.304 394.275L248.811 386.802L250.461 386.441L251.954 393.915C252.096 394.624 252.113 395.307 252.006 395.963C251.905 396.618 251.688 397.215 251.356 397.753C251.028 398.284 250.587 398.742 250.033 399.125C249.479 399.509 248.826 399.783 248.074 399.947C247.321 400.111 246.618 400.133 245.964 400.014C245.309 399.894 244.727 399.66 244.217 399.311C243.707 398.957 243.277 398.502 242.928 397.945C242.584 397.387 242.342 396.754 242.2 396.045L240.707 388.571L242.357 388.211L243.848 395.676C243.951 396.191 244.116 396.647 244.345 397.045C244.579 397.442 244.863 397.764 245.198 398.014C245.539 398.262 245.927 398.431 246.361 398.521C246.8 398.604 247.273 398.59 247.781 398.48Z" fill="white"/>
<path d="M265.931 392.448C266.02 392.422 266.109 392.435 266.196 392.488L267.034 392.995C266.7 393.716 266.224 394.342 265.608 394.873C264.998 395.403 264.195 395.816 263.2 396.113C262.34 396.371 261.516 396.456 260.73 396.368C259.942 396.275 259.226 396.033 258.58 395.641C257.933 395.244 257.368 394.707 256.885 394.03C256.402 393.352 256.036 392.558 255.785 391.647C255.535 390.736 255.448 389.858 255.524 389.013C255.6 388.169 255.821 387.397 256.185 386.697C256.555 385.996 257.059 385.389 257.698 384.875C258.336 384.356 259.09 383.966 259.962 383.706C260.817 383.45 261.61 383.362 262.339 383.442C263.069 383.522 263.747 383.724 264.375 384.048L264.045 384.959C264.027 385.026 263.995 385.087 263.95 385.143C263.909 385.192 263.844 385.229 263.754 385.256C263.654 385.286 263.516 385.27 263.341 385.206C263.165 385.137 262.941 385.07 262.669 385.005C262.397 384.941 262.071 384.907 261.689 384.906C261.306 384.899 260.858 384.972 260.343 385.125C259.723 385.311 259.186 385.59 258.732 385.963C258.277 386.331 257.918 386.776 257.657 387.298C257.401 387.819 257.25 388.406 257.206 389.058C257.161 389.711 257.241 390.408 257.445 391.151C257.652 391.904 257.943 392.545 258.318 393.072C258.698 393.597 259.129 394.01 259.611 394.31C260.097 394.603 260.621 394.782 261.182 394.845C261.75 394.907 262.327 394.85 262.914 394.674C263.271 394.567 263.587 394.452 263.862 394.327C264.14 394.195 264.387 394.048 264.602 393.887C264.824 393.723 265.019 393.543 265.189 393.346C265.362 393.142 265.526 392.913 265.681 392.66C265.752 392.547 265.836 392.477 265.931 392.448Z" fill="white"/>
<path d="M271.119 386.043L271.716 385.815C271.923 385.735 272.08 385.647 272.188 385.549C272.294 385.446 272.376 385.312 272.435 385.146L274.758 379.197C274.816 379.012 274.896 378.869 274.996 378.768C275.096 378.668 275.234 378.584 275.408 378.517L276.748 378.003L274.086 384.803C274.024 384.977 273.956 385.128 273.884 385.255C273.815 385.375 273.733 385.485 273.638 385.584C273.803 385.577 273.962 385.6 274.117 385.653C274.27 385.701 274.431 385.779 274.6 385.89L281.237 389.706L279.864 390.233C279.761 390.272 279.669 390.301 279.589 390.319C279.512 390.33 279.442 390.332 279.377 390.325C279.311 390.313 279.25 390.296 279.192 390.274C279.139 390.245 279.083 390.21 279.026 390.17L273.33 387.022C273.173 386.927 273.022 386.875 272.877 386.868C272.73 386.856 272.529 386.899 272.273 386.997L271.554 387.272L273.467 392.684L271.89 393.289L267.711 381.467L269.288 380.862L271.119 386.043Z" fill="white"/>
<path d="M291.134 383.8L291.688 385.114L285.216 388.067L280.345 376.513L281.882 375.812L286.198 386.052L291.134 383.8Z" fill="white"/>
<path d="M298.907 376.238L294.913 372.59C294.794 372.481 294.663 372.353 294.518 372.205C294.371 372.052 294.222 371.888 294.07 371.711C294.171 372.193 294.234 372.605 294.26 372.948L294.776 378.441L298.907 376.238ZM304.086 378.75L302.928 379.367C302.794 379.438 302.669 379.462 302.553 379.438C302.437 379.414 302.333 379.361 302.24 379.278L299.866 377.114L294.901 379.762L295.206 383.028C295.222 383.139 295.204 383.254 295.153 383.374C295.101 383.494 295.011 383.588 294.882 383.657L293.724 384.275L292.601 370.671L294.114 369.864L304.086 378.75Z" fill="white"/>
<path d="M309.882 360.524L316.26 371.32L315.544 371.776C315.431 371.849 315.323 371.89 315.221 371.9C315.123 371.907 315.009 371.886 314.879 371.837L303.956 367.6C304.04 367.72 304.12 367.838 304.197 367.955C304.273 368.073 304.342 368.184 304.404 368.29L308.948 375.982L307.694 376.781L301.316 365.985L302.054 365.515C302.118 365.474 302.175 365.445 302.225 365.427C302.273 365.403 302.319 365.391 302.366 365.389C302.409 365.382 302.458 365.385 302.514 365.398C302.566 365.407 302.626 365.423 302.695 365.448L313.614 369.678C313.527 369.554 313.443 369.434 313.362 369.32C313.283 369.198 313.211 369.081 313.145 368.971L308.628 361.324L309.882 360.524Z" fill="white"/>
<path d="M325.875 356.566C326.412 357.336 326.782 358.127 326.985 358.937C327.188 359.747 327.229 360.54 327.109 361.316C326.99 362.092 326.711 362.834 326.274 363.542C325.838 364.241 325.252 364.868 324.515 365.422L320.774 368.236L313.599 357.953L317.34 355.139C318.077 354.585 318.835 354.205 319.615 353.998C320.396 353.782 321.162 353.739 321.912 353.867C322.66 353.991 323.372 354.279 324.051 354.732C324.729 355.184 325.337 355.796 325.875 356.566ZM324.483 357.613C324.042 356.981 323.564 356.48 323.05 356.108C322.535 355.737 322.003 355.495 321.455 355.382C320.907 355.269 320.35 355.286 319.785 355.434C319.22 355.582 318.667 355.859 318.127 356.266L315.742 358.059L321.345 366.089L323.729 364.296C324.27 363.889 324.696 363.43 325.007 362.919C325.319 362.407 325.51 361.866 325.581 361.295C325.648 360.719 325.592 360.119 325.413 359.496C325.233 358.872 324.923 358.244 324.483 357.613Z" fill="white"/>
<path d="M102.584 56.19L104.529 58.7348L95.5488 65.5955L83.9868 50.4625L87.1156 48.072L96.7334 60.6603L102.584 56.19Z" fill="white"/>
<path d="M109.828 55.2434L106.538 57.4537L95.9185 41.645L99.2087 39.4347L109.828 55.2434Z" fill="white"/>
<path d="M118.33 28.1496L127.647 44.7594L125.872 45.7547C125.605 45.9045 125.357 45.9888 125.126 46.0076C124.892 46.0187 124.627 45.9667 124.331 45.8515L110.148 39.9624C110.321 40.2166 110.484 40.4714 110.637 40.7265C110.798 40.9775 110.94 41.2136 111.064 41.4349L116.451 51.0391L113.418 52.7406L104.101 36.1307L105.91 35.1162C106.055 35.0349 106.181 34.974 106.289 34.9337C106.4 34.8814 106.51 34.8546 106.62 34.8533C106.725 34.8443 106.835 34.8528 106.95 34.8787C107.065 34.9046 107.2 34.9491 107.356 35.0122L121.623 40.915C121.429 40.6421 121.25 40.3764 121.085 40.1178C120.916 39.8517 120.763 39.5965 120.626 39.3523L115.296 29.8511L118.33 28.1496Z" fill="white"/>
<path d="M137.118 37.1314C137.706 36.8817 138.192 36.5611 138.577 36.1694C138.959 35.7697 139.234 35.3203 139.402 34.821C139.571 34.3218 139.63 33.7786 139.58 33.1913C139.53 32.604 139.369 31.9882 139.095 31.3439L134.663 20.9059L138.287 19.367L142.719 29.805C143.171 30.8681 143.413 31.9202 143.446 32.9613C143.484 33.9908 143.322 34.9629 142.959 35.8774C142.597 36.7918 142.037 37.6235 141.281 38.3724C140.525 39.1213 139.575 39.7385 138.431 40.2241C137.287 40.7097 136.18 40.9663 135.108 40.9937C134.044 41.0177 133.057 40.8426 132.147 40.4685C131.237 40.0943 130.421 39.5378 129.698 38.7989C128.98 38.0485 128.396 37.1418 127.944 36.0786L123.512 25.6406L127.137 24.1017L131.569 34.5397C131.842 35.184 132.173 35.728 132.561 36.1717C132.949 36.6153 133.381 36.95 133.857 37.1756C134.333 37.4012 134.847 37.5156 135.4 37.5186C135.949 37.5135 136.522 37.3844 137.118 37.1314Z" fill="white"/>
<path d="M164.416 31.0787L160.652 32.2348C160.401 32.3119 160.177 32.3121 159.979 32.2354C159.79 32.1562 159.624 32.0471 159.481 31.908L153.483 26.4182C153.47 26.5231 153.456 26.6279 153.442 26.7328C153.435 26.8267 153.417 26.919 153.39 27.0097L151.551 34.3435C151.491 34.5358 151.406 34.722 151.297 34.9021C151.193 35.0712 151.029 35.1905 150.803 35.2598L147.29 36.3388L150.371 25.1361L141.924 18.0644L145.688 16.9084C145.939 16.8313 146.133 16.8082 146.271 16.8392C146.409 16.8701 146.547 16.9467 146.685 17.069L152.576 22.3031C152.587 22.1899 152.602 22.0754 152.622 21.9596C152.638 21.8355 152.664 21.7087 152.697 21.5794L154.445 14.7541C154.494 14.556 154.566 14.4013 154.66 14.2901C154.759 14.1679 154.897 14.0798 155.073 14.0259L158.674 12.9199L155.553 23.3661L164.416 31.0787Z" fill="white"/>
<path d="M177.963 25.3457C178.593 25.2406 179.141 25.0428 179.607 24.7523C180.071 24.4531 180.444 24.0805 180.724 23.6346C181.005 23.1886 181.19 22.6744 181.279 22.0918C181.368 21.5092 181.355 20.8726 181.24 20.1822L179.376 8.99648L183.26 8.34912L185.124 19.5348C185.314 20.6741 185.303 21.7537 185.092 22.7736C184.887 23.7834 184.502 24.6904 183.935 25.4945C183.368 26.2986 182.63 26.9762 181.719 27.5271C180.809 28.0781 179.741 28.4557 178.515 28.6599C177.289 28.8642 176.152 28.8542 175.104 28.6298C174.064 28.4039 173.145 28.0026 172.348 27.4258C171.551 26.8489 170.888 26.1167 170.359 25.2292C169.837 24.3316 169.481 23.3131 169.291 22.1739L167.426 10.9882L171.31 10.3408L173.175 21.5265C173.29 22.217 173.484 22.8233 173.757 23.3455C174.03 23.8676 174.372 24.2941 174.782 24.625C175.192 24.9558 175.665 25.1874 176.202 25.3198C176.737 25.4435 177.324 25.4521 177.963 25.3457Z" fill="white"/>
<path d="M199.305 10.8018C199.196 11.011 199.08 11.168 198.955 11.273C198.839 11.3686 198.681 11.4233 198.48 11.437C198.288 11.4501 198.074 11.399 197.838 11.2835C197.61 11.1588 197.343 11.0279 197.035 10.8911C196.727 10.7542 196.377 10.6334 195.984 10.5287C195.59 10.4153 195.136 10.3761 194.621 10.4113C193.713 10.4733 193.046 10.725 192.62 11.1663C192.194 11.5989 192.003 12.1425 192.048 12.7972C192.076 13.2162 192.222 13.5571 192.486 13.8197C192.758 14.0731 193.101 14.2864 193.516 14.4598C193.94 14.6325 194.415 14.7799 194.941 14.9018C195.467 15.0238 196.007 15.1623 196.561 15.3174C197.115 15.4638 197.658 15.6459 198.19 15.8639C198.723 16.0819 199.203 16.3692 199.63 16.7259C200.067 17.082 200.427 17.531 200.709 18.073C201 18.6057 201.172 19.2693 201.227 20.0637C201.286 20.9279 201.188 21.7502 200.935 22.5305C200.689 23.3016 200.302 23.9902 199.773 24.5963C199.244 25.1938 198.571 25.6826 197.755 26.0629C196.948 26.4425 196.016 26.6684 194.96 26.7405C194.358 26.7817 193.751 26.7617 193.141 26.6806C192.539 26.599 191.951 26.4681 191.377 26.288C190.812 26.1073 190.275 25.8809 189.765 25.6088C189.256 25.3366 188.805 25.0254 188.412 24.675L189.438 22.7369C189.524 22.5907 189.643 22.4686 189.794 22.3705C189.945 22.2638 190.107 22.2044 190.282 22.1925C190.518 22.1764 190.772 22.2467 191.046 22.4034C191.32 22.5601 191.634 22.7316 191.989 22.9179C192.344 23.1041 192.75 23.2693 193.207 23.4135C193.673 23.5571 194.22 23.6075 194.848 23.5645C195.765 23.5019 196.458 23.2441 196.927 22.7911C197.405 22.3375 197.615 21.696 197.558 20.8667C197.526 20.3866 197.373 20.0068 197.099 19.7272C196.834 19.4471 196.494 19.2204 196.079 19.047C195.664 18.8737 195.194 18.7348 194.669 18.6303C194.144 18.517 193.605 18.3916 193.052 18.254C192.499 18.1164 191.956 17.9429 191.424 17.7337C190.893 17.5244 190.412 17.2327 189.983 16.8586C189.554 16.4844 189.193 16.0092 188.899 15.4329C188.614 14.856 188.442 14.1266 188.382 13.245C188.333 12.5378 188.426 11.843 188.66 11.1605C188.894 10.478 189.264 9.86069 189.77 9.30867C190.276 8.75666 190.911 8.29668 191.676 7.92875C192.449 7.56023 193.346 7.34109 194.367 7.27133C195.511 7.19322 196.579 7.30004 197.573 7.59177C198.574 7.87418 199.433 8.3067 200.148 8.88933L199.305 10.8018Z" fill="white"/>
<path d="M208.414 10.1232L208.345 15.0183L214.696 15.1078L214.655 18.0869L208.303 17.9974L208.232 22.9975L216.395 23.1125L216.352 26.1966L204.225 26.0258L204.494 6.98328L216.62 7.15411L216.577 10.2382L208.414 10.1232Z" fill="white"/>
<path d="M226.721 17.0261C227.356 17.0913 227.913 17.0693 228.39 16.9599C228.868 16.8418 229.27 16.6587 229.594 16.4106C229.92 16.1537 230.172 15.8409 230.35 15.4722C230.529 15.1035 230.641 14.6928 230.688 14.2402C230.78 13.3436 230.551 12.6165 230.001 12.0587C229.46 11.5019 228.58 11.1609 227.362 11.0359L225.325 10.827L224.71 16.8199L226.721 17.0261ZM234.876 27.9429L231.338 27.5799C230.676 27.5121 230.224 27.2105 229.979 26.6753L226.972 20.4955C226.847 20.254 226.699 20.0717 226.527 19.9485C226.363 19.8261 226.107 19.7471 225.759 19.7114L224.428 19.5748L223.687 26.795L219.77 26.3932L221.713 7.44824L227.667 8.05903C228.99 8.19476 230.107 8.45011 231.019 8.82509C231.931 9.19137 232.663 9.64903 233.213 10.1981C233.764 10.7471 234.144 11.3754 234.353 12.0829C234.562 12.7817 234.626 13.5359 234.543 14.3454C234.478 14.9721 234.326 15.559 234.085 16.106C233.854 16.6452 233.545 17.1281 233.158 17.5546C232.771 17.9811 232.311 18.3473 231.779 18.6533C231.246 18.9593 230.651 19.1885 229.993 19.3409C230.231 19.5061 230.449 19.6999 230.646 19.9224C230.844 20.1363 231.016 20.387 231.162 20.6747L234.876 27.9429Z" fill="white"/>
<path d="M253.255 21.9776L259.611 23.5031L257.776 31.1479C256.666 31.6104 255.537 31.8746 254.387 31.9406C253.248 32.0002 252.083 31.887 250.892 31.6011C249.369 31.2356 248.046 30.6708 246.925 29.9067C245.806 29.1341 244.909 28.2215 244.235 27.1689C243.561 26.1162 243.124 24.9541 242.925 23.6826C242.727 22.4111 242.792 21.0905 243.12 19.7206C243.453 18.3337 243.984 17.1159 244.713 16.0669C245.45 15.0201 246.34 14.1808 247.382 13.5492C248.425 12.9175 249.598 12.5107 250.901 12.3286C252.213 12.1486 253.609 12.2362 255.09 12.5915C255.855 12.7753 256.555 13.0107 257.188 13.2976C257.823 13.576 258.395 13.8932 258.903 14.2492C259.414 14.5967 259.867 14.9755 260.264 15.3856C260.66 15.7957 261.007 16.2254 261.304 16.6746L259.783 18.1183C259.548 18.3497 259.287 18.4625 259 18.4567C258.714 18.451 258.432 18.3114 258.156 18.0381C257.894 17.7774 257.632 17.539 257.369 17.3229C257.117 17.1003 256.838 16.8939 256.532 16.7037C256.227 16.5134 255.886 16.3415 255.509 16.188C255.132 16.0345 254.688 15.8965 254.177 15.774C253.318 15.5678 252.504 15.5298 251.735 15.6601C250.965 15.7905 250.269 16.0687 249.645 16.4948C249.029 16.9229 248.497 17.4882 248.05 18.1907C247.602 18.8931 247.265 19.7166 247.038 20.661C246.793 21.682 246.719 22.6314 246.814 23.5091C246.911 24.3783 247.157 25.1527 247.552 25.8324C247.947 26.512 248.475 27.0843 249.138 27.5492C249.808 28.0162 250.595 28.3579 251.497 28.5743C252.109 28.7214 252.668 28.7925 253.173 28.7878C253.689 28.7765 254.202 28.7197 254.712 28.6173L255.46 25.5032L253.367 25.0008C253.12 24.9416 252.939 24.8308 252.825 24.6685C252.722 24.4997 252.695 24.3132 252.744 24.109L253.255 21.9776Z" fill="white"/>
<path d="M269.92 26.6364C270.523 26.848 271.069 26.9563 271.559 26.9612C272.051 26.958 272.485 26.8735 272.858 26.7078C273.234 26.5339 273.552 26.2885 273.812 25.9716C274.072 25.6547 274.277 25.2816 274.427 24.8523C274.726 24.0019 274.673 23.2414 274.268 22.5708C273.872 21.9032 273.096 21.3665 271.94 20.9608L270.008 20.2826L268.013 25.967L269.92 26.6364ZM275.305 39.1539L271.949 37.9759C271.322 37.7556 270.952 37.3568 270.839 36.7794L269.355 30.0687C269.29 29.8047 269.188 29.5928 269.05 29.4329C268.92 29.2758 268.689 29.1394 268.359 29.0234L267.096 28.58L264.692 35.4285L260.977 34.1244L267.284 16.1549L272.931 18.1372C274.186 18.5777 275.213 19.0865 276.012 19.6637C276.814 20.2326 277.419 20.8482 277.826 21.5105C278.233 22.1729 278.456 22.8724 278.494 23.6091C278.535 24.3375 278.421 25.0857 278.152 25.8535C277.943 26.4479 277.658 26.9831 277.296 27.4589C276.945 27.9293 276.532 28.3268 276.057 28.6513C275.581 28.9759 275.049 29.2248 274.459 29.3981C273.87 29.5714 273.237 29.6555 272.562 29.6504C272.755 29.8665 272.922 30.1058 273.062 30.3681C273.204 30.6222 273.313 30.9062 273.388 31.2201L275.305 39.1539Z" fill="white"/>
<path d="M297.371 39.0947C296.771 40.3498 296.001 41.4122 295.062 42.2819C294.13 43.1554 293.09 43.7979 291.943 44.2094C290.804 44.6247 289.586 44.7987 288.289 44.7315C286.996 44.6564 285.69 44.3036 284.372 43.6731C283.054 43.0427 281.96 42.2479 281.09 41.2886C280.224 40.3215 279.59 39.2622 279.191 38.1108C278.791 36.9594 278.634 35.7449 278.722 34.4675C278.817 33.1939 279.164 31.9295 279.764 30.6744C280.365 29.4193 281.129 28.359 282.057 27.4934C282.996 26.6237 284.04 25.9831 285.187 25.5716C286.335 25.16 287.555 24.9918 288.848 25.067C290.144 25.1342 291.452 25.4831 292.77 26.1135C294.088 26.7439 295.18 27.5427 296.047 28.5098C296.917 29.4691 297.546 30.5265 297.934 31.682C298.334 32.8335 298.486 34.046 298.391 35.3196C298.308 36.5891 297.968 37.8475 297.371 39.0947ZM293.736 37.3563C294.167 36.4564 294.433 35.5946 294.536 34.7709C294.643 33.9393 294.59 33.1673 294.378 32.4548C294.178 31.7382 293.82 31.0968 293.305 30.5305C292.802 29.9601 292.148 29.4824 291.343 29.0973C290.538 28.7123 289.751 28.5011 288.984 28.4637C288.22 28.4184 287.492 28.5407 286.8 28.8308C286.12 29.1167 285.49 29.5622 284.91 30.1672C284.333 30.7644 283.83 31.513 283.4 32.4128C282.965 33.3206 282.695 34.1903 282.588 35.0219C282.485 35.8456 282.536 36.6118 282.74 37.3205C282.952 38.033 283.314 38.6763 283.825 39.2505C284.34 39.8167 285 40.2924 285.805 40.6775C286.61 41.0625 287.391 41.2758 288.147 41.3173C288.914 41.3547 289.638 41.2305 290.318 40.9446C291.006 40.6624 291.638 40.2228 292.215 39.6256C292.795 39.0205 293.302 38.2641 293.736 37.3563Z" fill="white"/>
<path d="M304.047 50.6972C304.588 51.0369 305.129 51.2529 305.671 51.3451C306.217 51.4298 306.743 51.3986 307.249 51.2514C307.755 51.1041 308.234 50.8423 308.688 50.4659C309.141 50.0894 309.554 49.6049 309.927 49.0121L315.959 39.4098L319.293 41.5045L313.261 51.1068C312.646 52.0848 311.921 52.8849 311.086 53.5072C310.263 54.1267 309.373 54.5489 308.415 54.7739C307.457 54.999 306.455 55.0152 305.408 54.8226C304.362 54.63 303.312 54.2032 302.26 53.5423C301.208 52.8813 300.364 52.1188 299.729 51.2547C299.101 50.3953 298.681 49.4854 298.468 48.5249C298.255 47.5645 298.245 46.5767 298.439 45.5615C298.644 44.5436 299.054 43.5456 299.669 42.5676L305.701 32.9653L309.035 35.06L303.003 44.6623C302.63 45.255 302.373 45.8373 302.231 46.4093C302.088 46.9812 302.061 47.527 302.148 48.0466C302.234 48.5662 302.435 49.0536 302.748 49.5088C303.066 49.9566 303.499 50.3527 304.047 50.6972Z" fill="white"/>
<path d="M323.062 56.2175C324.037 56.9737 324.932 57.2911 325.746 57.1696C326.567 57.0535 327.294 56.5875 327.927 55.7717C328.216 55.3984 328.42 55.014 328.539 54.6187C328.669 54.2218 328.7 53.825 328.632 53.4283C328.575 53.0301 328.416 52.6354 328.155 52.2443C327.893 51.8533 327.521 51.47 327.037 51.0946L325.066 49.566L321.092 54.6889L323.062 56.2175ZM328.871 48.7302C329.901 49.5293 330.696 50.3395 331.255 51.1607C331.82 51.9873 332.176 52.8061 332.322 53.6171C332.474 54.4212 332.433 55.209 332.2 55.9805C331.974 56.7574 331.59 57.495 331.048 58.1933C330.474 58.933 329.828 59.5167 329.108 59.9443C328.389 60.3719 327.612 60.6165 326.778 60.6782C325.944 60.7398 325.057 60.6055 324.117 60.2751C323.183 59.9378 322.215 59.3804 321.212 58.6027L319.242 57.0741L315.227 62.2488L312.116 59.8353L323.79 44.7881L328.871 48.7302Z" fill="white"/>
<path d="M382 207C382 303.65 303.65 382 207 382C110.35 382 32 303.65 32 207C32 110.35 110.35 32 207 32C303.65 32 382 110.35 382 207Z" fill="#E6E6E6"/>
<path d="M366.988 278C339.758 339.271 278.367 382 206.994 382C135.621 382 74.2307 339.271 47 278H366.988Z" fill="#40CDAA"/>
<path d="M345 147.5L349 158V202.5L343.5 216V321L337.5 325.5L338.5 216L333.5 202.5L334.5 158L338 147.5L341.5 136.5L345 147.5Z" fill="white"/>
<path d="M341.5 157.5C350.645 157.604 360 160 364 164L360 167.5V169.5L353.5 173.5L353 177.5V182L352 177.38V172.433C347.377 169.986 337.278 169.862 331 172.063V177.299L330 182L329 177.5L328 173.5L322 169.5V167.5L318 164C326 158.5 331.979 157.392 341.5 157.5ZM329.123 168.481C328.725 168.531 328.323 168.583 327.917 168.637L328.179 168.812L329.123 168.481ZM353.073 168.509C353.247 168.587 353.418 168.668 353.585 168.751L353.82 168.605C353.57 168.573 353.321 168.54 353.073 168.509ZM356.923 164.878C345.455 163.143 336.888 162.702 324.886 164.71L325.193 164.98C336.836 163.272 344.802 163.228 356.804 164.981L356.923 164.878Z" fill="black"/>
<path d="M338.586 173L332.121 173.852C331.527 173.931 331 173.468 331 172.869C331 172.372 331.369 171.951 331.862 171.886L338.586 171H344.586L351.141 171.884C351.633 171.951 352 172.37 352 172.866C352 173.466 351.471 173.929 350.877 173.848L344.586 173H338.586Z" fill="#40CDAA"/>
<path d="M338.586 187L331 188V175L338.586 174H344.586L352 175V188L344.586 187H338.586Z" fill="black"/>
<path d="M330.344 162.183L324.08 163.171C323.248 163.303 322.941 164.342 323.57 164.904L329.833 170.509C330.477 171.085 331.5 170.628 331.5 169.763V163.17C331.5 162.556 330.951 162.087 330.344 162.183Z" fill="black"/>
<path d="M358.647 164.088L352.947 162.822C352.255 162.668 351.627 163.263 351.744 163.962L352.693 169.662C352.825 170.449 353.779 170.773 354.362 170.228L359.112 165.795C359.7 165.246 359.432 164.263 358.647 164.088Z" fill="black"/>
<path d="M342.386 147C347.331 147 350.769 147.514 353.017 148.056C354.14 148.326 354.966 148.603 355.533 148.825C355.816 148.936 356.035 149.034 356.193 149.109C356.272 149.147 356.336 149.18 356.386 149.206C356.411 149.219 356.433 149.231 356.45 149.24C356.459 149.245 356.467 149.249 356.474 149.253C356.477 149.255 356.48 149.257 356.483 149.259C356.485 149.26 356.487 149.26 356.488 149.261L356.49 149.263C356.489 149.268 356.443 149.35 355.585 150.852L356.492 149.264C357.451 149.812 357.784 151.033 357.236 151.992C356.689 152.951 355.468 153.284 354.509 152.737L354.512 152.738C354.513 152.739 354.514 152.74 354.515 152.74C354.517 152.742 354.52 152.743 354.521 152.744C354.511 152.739 354.493 152.731 354.469 152.719C354.398 152.685 354.268 152.626 354.073 152.55C353.683 152.397 353.033 152.174 352.08 151.944C350.174 151.486 347.054 151 342.386 151C337.719 151 334.128 151.486 331.728 151.962C330.527 152.2 329.623 152.435 329.032 152.607C328.737 152.693 328.52 152.764 328.382 152.811C328.313 152.834 328.264 152.85 328.235 152.86C328.221 152.866 328.211 152.87 328.207 152.871C328.205 152.872 328.204 152.872 328.204 152.872L328.206 152.871H328.207V152.87C327.175 153.26 326.021 152.741 325.63 151.709C325.238 150.676 325.758 149.522 326.791 149.13L327.398 150.732C326.826 149.222 326.793 149.135 326.792 149.13L326.793 149.129C326.794 149.129 326.795 149.128 326.796 149.128C326.798 149.127 326.801 149.126 326.804 149.125C326.809 149.123 326.816 149.12 326.824 149.117C326.84 149.111 326.862 149.104 326.888 149.095C326.941 149.076 327.015 149.049 327.109 149.018C327.297 148.955 327.567 148.869 327.915 148.768C328.613 148.565 329.629 148.3 330.948 148.038C333.587 147.514 337.44 147 342.386 147ZM354.531 152.749H354.529L354.521 152.744C354.526 152.746 354.529 152.748 354.531 152.749Z" fill="black"/>
<path d="M207.5 382C132 382 92.5 339.5 92.5 339.5C99.363 322.967 103.929 315.733 115 304.5C125.275 294.039 129.085 287.49 135 275.5C136.939 266.983 137.039 260.354 135 254.5C129.94 243.576 128.906 237.443 128 226.5V210C130.443 193.109 132.979 184.72 141 173L131.5 167.5L134 141.5L91 125V144L96 165.5L101.5 192.5C101.01 196.116 99.1441 194.919 93.4275 197.171H81.4275C76.2852 195.315 74.697 196.511 74 192.5L80 165.5L83.5 144V124L77 121V115L213.5 70L324 111V125L283 141.5L285 168L277 172C282.646 178.684 285.212 184.669 288 202C288.747 213.406 288.394 219.76 286 231C292.535 233.628 295.24 236.456 299 243C297.161 256.467 292.469 262.559 273 269C272.925 273.507 272.585 275.835 273.5 281C274.44 284.392 275.179 286.268 277.5 289.5C285.177 300.067 292.5 306 298.5 314C304.5 322 309.852 329.583 314.5 345C314.5 345 283 382 207.5 382Z" fill="black"/>
<path d="M183 272C209.5 291 233.5 296.5 259.204 280.5C259.204 280.5 258 284.5 260.5 296.5C262.952 308.272 277.858 332.049 285.087 363.653C263.024 374.672 238.308 381.166 212.152 381.922C198.512 382.064 184.78 380.87 171.611 378.419C165.27 377.117 159.054 375.471 152.983 373.503C152.048 342.006 173.416 314.432 177.5 301.5C181.605 288.5 183 272 183 272ZM130.5 341C130.498 341.008 127.723 355.369 127.5 362.5V362.94C126.675 362.519 125.854 362.09 125.037 361.656C125.696 352.736 130.496 341.01 130.5 341ZM280 327.5C285.861 336.817 290.661 339.793 295.983 357.719C294.57 358.555 293.143 359.371 291.704 360.168C289.451 346.894 285.508 340.921 280 327.5ZM268 281C269.747 292.828 277.5 301.5 292.5 319C307.295 336.261 305.607 334.078 310.095 348.422C308.608 349.508 307.101 350.569 305.579 351.608C301.201 337.402 296.887 332.414 288 320C268.822 302.615 266.694 294.503 268 281ZM171 156L162.5 162C162.495 162.007 158.654 167.143 156 170.5C152.303 175.176 150.721 178.196 148 183.5C145.765 187.857 144.632 190.383 143 195C141.579 199.021 141.225 201.415 140 205.5C138.5 210.5 139.5 220 139.5 225C139.5 230 144 245.5 145 250.5C146 255.5 146.5 267 145.5 273.5C144.5 280 143.33 282.548 141 288C138.093 294.803 126.833 306.851 117.5 318C109.88 328.301 106.813 334.421 102.779 347.591C101.582 346.702 100.395 345.799 99.2217 344.88C103.818 331.937 106.737 326.554 114.5 316C124.621 306.007 135 292 137.5 287C140 282 140.574 278.92 141.5 273.5C142.635 266.857 141.439 254.553 141.09 251.304C141.032 250.763 140.912 250.239 140.743 249.723C137.426 239.58 136 231.339 136 225C136 218.5 135.5 209 136 205.5C136.5 202 139 194.5 139 194.5L144 183.5C144.002 183.496 148.19 173.672 152.5 168.5C155.418 164.998 156.98 162.397 160.5 159.5C163.847 156.745 164 156.5 170 154C175.994 151.503 180.49 151.5 180.5 151.5L171 156ZM203 184C229 184 233 233 233 233L214.5 238L191 245C179.363 236.13 177.641 230.09 176 219V211C180.488 191.462 185.522 186.606 197 184H203ZM265 190C275.5 190 278.5 200 279 207C279.5 214 280.182 220.311 277 229C273.5 227.5 271.5 227.5 269 227L269.5 207C268.26 203.472 266 200 262.5 200C259 200 256 204.5 255.5 207C255 209.5 255 227 255 227H250C249.767 221.249 249.5 213.5 250.5 207C251.5 200.5 254.5 190 265 190ZM219 145C237.5 145 253.5 144 277.5 184C269.418 174.635 265.892 172.998 260 171.5C242.874 151.196 238.644 150.428 219 145ZM272.5 119.5L279.5 164L269 158.5L260.5 153L274 158L266 120.5L245 109L272.5 119.5ZM149 121L143 158.5L162.5 150.5L138 163.5L142.5 119L170.5 110L149 121Z" fill="white"/>
<path d="M100 155.5C100 162.404 94.4036 168 87.5 168C80.5964 168 75 162.404 75 155.5C75 148.596 80.5964 143 87.5 143C94.4036 143 100 148.596 100 155.5Z" fill="black"/>
<path d="M267 208C267 210.761 265.657 213 264 213C262.343 213 261 210.761 261 208C261 205.239 262.343 203 264 203C265.657 203 267 205.239 267 208Z" fill="white"/>
<path d="M94 155.5C94 159.09 91.0899 162 87.5 162C83.9101 162 81 159.09 81 155.5C81 151.91 83.9101 149 87.5 149C91.0899 149 94 151.91 94 155.5Z" fill="white"/>
<path d="M227 234L191 245C182.999 247.098 179.205 248.661 177 254C176.813 255.172 176.778 255.828 177 257C181.888 268.565 207.5 282.5 218 284C228.5 285.5 231 285 234 285C237 285 248.299 280.743 256 273C242.257 275.472 237.024 275.025 228 274C208.61 270.725 196 259 196 258C196 257 192 262.5 192 261C192 259.5 192 259.5 193 257L193 257C194 254.5 196.931 252.666 200.5 253C199.738 254.144 199.488 254.791 200.5 256C208.001 260.097 212.731 261.935 222 264.5C234.412 266.576 241.178 266.807 253 266C270.997 264.146 286.5 252 290 249C293.5 246 292.5 245.5 292.5 244C292.5 242.5 284.5 236 280.5 234C276.5 232 270.974 231.938 267 231H247L227 234Z" fill="#FFA300"/>
<path d="M210 217.5C210 229.374 205.523 239 200 239C194.477 239 190 229.374 190 217.5C190 205.626 194.477 196 200 196C205.523 196 210 205.626 210 217.5Z" fill="black"/>
<path d="M207 208C207 211.314 205.209 214 203 214C200.791 214 199 211.314 199 208C199 204.686 200.791 202 203 202C205.209 202 207 204.686 207 208Z" fill="white"/>
<path d="M288 320C297.239 332.083 301.311 337.207 305.591 351.601C304.884 352.083 304.174 352.562 303.46 353.035C298.552 339.865 294.463 333.983 286 321C276.703 310.652 274.777 307.089 271 300.5L288 320ZM90 168C92.994 176.799 94.1398 182.028 95 192C93.9293 192.94 93.0734 193.179 91 193C90.2859 185.337 88.5 173.5 87.5 174C86.5 174.5 84.793 184.763 84 193C82.1825 193.312 81.3144 193.104 80 192C81.0087 181.109 82.0367 175.746 85 168H90ZM219 145C239.537 148.681 248 155.5 260 171.5C255.481 171.592 253.467 173.054 250 176C234.125 155.065 233.227 152.498 219 145ZM266 120.5L274 158L260.5 153L240 142L256 146.5L249 117.5L242 109H245L266 120.5ZM318 115V118L213.5 79L91 120V117L213.5 76L318 115Z" fill="#40CDAA"/>
<path d="M339.5 92.6787C340.861 94.255 342.195 95.8558 343.5 97.4805V129.593L348.775 146.173L353 157.264V201.716C353 202.751 352.799 203.776 352.408 204.734L348.095 215.322C347.704 216.281 347.503 217.306 347.503 218.341V311.34C346.2 313.091 344.866 314.818 343.5 316.519V217.567C343.5 216.533 343.7 215.507 344.091 214.549L348.409 203.951C348.8 202.993 349 201.967 349 200.933V158L345 147.5L341.5 136.5L338 147.5L334.5 158L333.534 200.974C333.512 201.982 333.68 202.986 334.03 203.932L337.995 214.638C338.329 215.539 338.498 216.492 338.493 217.453L338.009 323.026C336.67 324.537 335.303 326.024 333.913 327.487L334.488 218.162C334.493 217.199 334.325 216.244 333.99 215.341L330.014 204.605C329.663 203.66 329.495 202.656 329.518 201.647L330.515 157.308L334.205 146.235L339.5 129.593V92.6787Z" fill="black"/>
</svg>
